<svg width="25" height="24" viewBox="0 0 25 24" fill="none" xmlns="http://www.w3.org/2000/svg">
    <path d="M24.261 12.2737C24.262 11.456 24.1929 10.6397 24.0543 9.8338H12.738V14.4553H19.2195C19.0869 15.1934 18.8061 15.8971 18.3943 16.5238C17.9824 17.1505 17.4478 17.6873 16.8229 18.1019V21.1018H20.6911C22.956 19.0135 24.261 15.9253 24.261 12.2737Z" fill="#4285F4"/>
    <path d="M12.7382 24C15.9764 24 18.703 22.9367 20.6912 21.1034L16.823 18.1035C15.7464 18.8335 14.3598 19.2502 12.7382 19.2502C9.60826 19.2502 6.95168 17.1402 6.00171 14.297H2.01685V17.3885C3.01559 19.3759 4.54706 21.0466 6.44027 22.2141C8.33348 23.3816 10.5139 23.9999 12.7382 24Z" fill="#34A853"/>
    <path d="M6.00163 14.297C5.49941 12.8071 5.49941 11.1937 6.00163 9.7038V6.61224H2.01676C1.17658 8.28411 0.739014 10.1293 0.739014 12.0004C0.739014 13.8715 1.17658 15.7167 2.01676 17.3886L6.00163 14.297Z" fill="#FBBC04"/>
    <path d="M12.7382 4.75063C14.4494 4.72267 16.1029 5.36924 17.3413 6.55057L20.7662 3.12568C18.5945 1.08588 15.7174 -0.03401 12.7382 0.000787286C10.5139 0.000888658 8.33348 0.619191 6.44027 1.78667C4.54706 2.95414 3.01559 4.62484 2.01685 6.61224L6.00171 9.7038C6.95168 6.86056 9.60826 4.75063 12.7382 4.75063Z" fill="#EA4335"/>
</svg>
