<svg width="113" height="100" viewBox="0 0 113 100" fill="none" xmlns="http://www.w3.org/2000/svg">
    <g clip-path="url(#clip0_1622_7564)">
        <path d="M43.7347 86.3019H14.6599C14.1765 86.3019 13.7847 85.9101 13.7847 85.4267V78.4938C13.7847 78.0104 14.1765 77.6186 14.6599 77.6186H43.7347C44.2181 77.6186 44.6098 78.0104 44.6098 78.4938V85.4267C44.6098 85.9101 44.2181 86.3019 43.7347 86.3019ZM15.535 84.5515H42.8595V79.369H15.535V84.5515Z" fill="white"/>
        <path d="M19.7081 100H16.9496C16.6761 100 16.4183 99.872 16.2525 99.6543C16.0873 99.4365 16.0329 99.1534 16.1061 98.8896L19.9231 85.1915C20.053 84.726 20.5359 84.4539 21.0009 84.5833C21.4668 84.7131 21.7389 85.1956 21.6091 85.6615L18.1023 98.2497H19.0438L22.6822 85.1919C22.812 84.7265 23.2954 84.4544 23.7604 84.5838C24.2263 84.7136 24.4984 85.1961 24.3686 85.662L20.5516 99.3601C20.4457 99.7381 20.1013 100 19.7081 100Z" fill="white"/>
        <path d="M41.4452 100H38.6871C38.2939 100 37.9496 99.738 37.8441 99.3596L34.0271 85.6615C33.9539 85.3977 34.0078 85.115 34.1731 84.8968C34.3388 84.679 34.5962 84.551 34.8701 84.551H37.6264C38.0195 84.551 38.3639 84.813 38.4693 85.1914L42.2882 98.8896C42.3614 99.1534 42.3075 99.436 42.1418 99.6543C41.977 99.872 41.7192 100 41.4452 100ZM39.3519 98.2496H40.2929L36.9621 86.3019H36.0224L39.3519 98.2496Z" fill="white"/>
        <path d="M30.5767 86.3019H27.8185C27.3351 86.3019 26.9434 85.9101 26.9434 85.4267C26.9434 84.9433 27.3351 84.5515 27.8185 84.5515H30.5767C31.0601 84.5515 31.4519 84.9433 31.4519 85.4267C31.4519 85.9101 31.0601 86.3019 30.5767 86.3019Z" fill="white"/>
        <path d="M39.1502 82.7233H19.2448C18.7614 82.7233 18.3696 82.3315 18.3696 81.8481C18.3696 81.3647 18.7614 80.973 19.2448 80.973H39.1502C39.6336 80.973 40.0254 81.3647 40.0254 81.8481C40.0254 82.3311 39.6336 82.7233 39.1502 82.7233Z" fill="white"/>
        <path d="M33.3754 79.369H24.6134C24.1867 79.369 23.8216 79.061 23.7502 78.6402L21.6992 66.5203C21.6564 66.2666 21.7273 66.006 21.8935 65.8094C22.0602 65.6124 22.3046 65.4991 22.562 65.4991H35.4264C35.6842 65.4991 35.9286 65.6124 36.0948 65.8094C36.261 66.006 36.3324 66.2666 36.2891 66.5203L34.2381 78.6402C34.1672 79.061 33.8021 79.369 33.3754 79.369ZM25.3528 77.6186H32.6355L34.3905 67.2495H23.5983L25.3528 77.6186Z" fill="white"/>
        <path d="M28.9945 67.1938C25.9251 67.1938 23.521 62.6278 23.521 56.7984C23.521 51.2228 28.2003 46.8211 28.3992 46.6365C28.7353 46.3252 29.2536 46.3252 29.5893 46.6365C29.7881 46.8211 34.4674 51.2228 34.4674 56.7984C34.4679 62.6273 32.0638 67.1938 28.9945 67.1938ZM28.9945 48.5392C27.8099 49.8517 25.2714 53.0974 25.2714 56.798C25.2714 61.8925 27.2335 65.443 28.9945 65.443C30.7554 65.443 32.7175 61.8925 32.7175 56.798C32.7175 53.0979 30.1795 49.8527 28.9945 48.5392Z" fill="white"/>
        <path d="M28.9943 66.8052C28.5109 66.8052 28.1191 66.4135 28.1191 65.9301V52.5887C28.1191 52.1053 28.5109 51.7135 28.9943 51.7135C29.4777 51.7135 29.8695 52.1053 29.8695 52.5887V65.9301C29.8695 66.4135 29.4777 66.8052 28.9943 66.8052Z" fill="white"/>
        <path d="M7.66901 83.7762C7.35963 83.7762 7.05992 83.6119 6.90063 83.3218C2.38615 75.087 0 65.7427 0 56.298C0 25.255 25.255 0 56.298 0C87.3409 0 112.596 25.255 112.596 56.298C112.596 65.7427 110.21 75.0875 105.695 83.3218C105.463 83.7454 104.931 83.9001 104.507 83.6685C104.084 83.436 103.928 82.9038 104.16 82.4802C108.534 74.5032 110.846 65.4499 110.846 56.2985C110.846 26.2209 86.3755 1.75082 56.298 1.75082C26.2205 1.75036 1.75036 26.2205 1.75036 56.298C1.75036 65.449 4.06193 74.5028 8.43554 82.4798C8.66757 82.9038 8.51288 83.4355 8.08887 83.668C7.95536 83.7412 7.8108 83.7762 7.66901 83.7762Z" fill="white"/>
        <path d="M56.298 23.454C55.8146 23.454 55.4229 23.0623 55.4229 22.5789V1.02112C55.4229 0.537718 55.8146 0.145935 56.298 0.145935C56.7814 0.145935 57.1732 0.537718 57.1732 1.02112V22.5784C57.1737 23.0623 56.7814 23.454 56.298 23.454Z" fill="white"/>
        <path d="M58.2606 28.8405H54.2101C53.7267 28.8405 53.335 28.4487 53.335 27.9653V24.6041C53.335 23.0047 54.636 21.7037 56.2354 21.7037C57.8343 21.7037 59.1357 23.0047 59.1357 24.6041V27.9653C59.1362 28.4487 58.744 28.8405 58.2606 28.8405ZM55.0853 27.0901H57.3854V24.6041C57.3854 23.9701 56.8698 23.454 56.2354 23.454C55.601 23.454 55.0853 23.9697 55.0853 24.6041V27.0901Z" fill="white"/>
        <path d="M70.8945 39.1171H41.7019C41.2185 39.1171 40.8267 38.7253 40.8267 38.2419V35.9142C40.7019 33.2965 42.955 30.9882 47.5243 29.0955C50.7267 27.7692 53.9061 27.1339 54.0396 27.1076C54.0953 27.0966 54.1524 27.091 54.209 27.091H57.8004C57.8432 27.0648 57.8884 27.0418 57.9358 27.0229C58.2369 26.9032 58.5762 26.9594 58.8206 27.1633C59.6663 27.3456 62.3605 27.9736 65.0707 29.0955C69.6285 30.9831 71.8821 33.2832 71.7693 35.9336V38.2419C71.7697 38.7253 71.3779 39.1171 70.8945 39.1171ZM42.5766 37.3667H70.0194V35.9142C70.0194 35.9004 70.0198 35.8866 70.0203 35.8728C70.1289 33.581 67.0366 31.8067 64.423 30.7221C61.6464 29.5693 58.7962 28.9464 58.2935 28.8409C58.2829 28.8414 58.2719 28.8414 58.2613 28.8414H54.2988C53.7882 28.9482 50.944 29.5711 48.173 30.7216C45.5599 31.8067 42.4679 33.5806 42.5761 35.8728L42.5766 37.3667Z" fill="white"/>
        <path d="M96.2216 98.9793L92.1246 74.4291C91.6044 71.311 88.9328 69.0477 85.7714 69.0477H72.175C71.6916 69.0477 71.2998 69.4395 71.2998 69.9229C71.2998 70.4063 71.6916 70.7981 72.175 70.7981H81.8913L77.1816 98.9789C77.102 99.4558 77.4238 99.907 77.9003 99.9866C77.9495 99.9949 77.9979 99.9986 78.0458 99.9986C78.4656 99.9986 78.8367 99.6957 78.908 99.268L83.6656 70.7981H85.7709C88.0733 70.7981 90.0193 72.4463 90.3977 74.7169L94.4947 99.2671C94.566 99.6952 94.9371 99.9981 95.357 99.9981C95.4044 99.9981 95.4532 99.9945 95.502 99.9862C95.9789 99.907 96.3007 99.4563 96.2216 98.9793Z" fill="white"/>
        <path d="M50.0076 100C49.9597 100 49.9114 99.9963 49.8625 99.988C49.3861 99.9084 49.0638 99.4577 49.1434 98.9807L50.9541 88.1277C51.0338 87.6508 51.4849 87.3299 51.9614 87.4086C52.4379 87.4883 52.7602 87.939 52.6805 88.4159L50.8699 99.2689C50.798 99.6966 50.4274 100 50.0076 100Z" fill="white"/>
        <path d="M53.7756 77.4294C53.7277 77.4294 53.6794 77.4253 53.6301 77.417C53.1536 77.3373 52.8314 76.8866 52.911 76.4097L54.0187 69.7779C54.0983 69.301 54.5481 68.9791 55.026 69.0588C55.5025 69.1384 55.8248 69.5892 55.7451 70.0661L54.6374 76.6979C54.5665 77.126 54.1955 77.4294 53.7756 77.4294Z" fill="white"/>
        <path d="M67.3206 99.9972C66.9008 99.9972 66.5297 99.6943 66.4583 99.2662L64.7333 88.9242C64.6536 88.4472 64.9755 87.9965 65.4524 87.9169C65.9326 87.8372 66.3805 88.1595 66.4597 88.636L68.1848 98.978C68.2644 99.4549 67.9426 99.9056 67.4657 99.9853C67.4169 99.9936 67.3681 99.9972 67.3206 99.9972Z" fill="white"/>
        <path d="M63.5503 77.4087C63.1304 77.4087 62.7593 77.1053 62.688 76.6772L62.3611 74.7169C61.9827 72.4458 60.0367 70.7977 57.7343 70.7977H44.1384C43.655 70.7977 43.2632 70.4059 43.2632 69.9225C43.2632 69.4391 43.655 69.0473 44.1384 69.0473H57.7343C60.8957 69.0473 63.5678 71.311 64.0875 74.4291L64.4144 76.3894C64.4941 76.8664 64.1722 77.3171 63.6953 77.3967C63.6465 77.4046 63.5977 77.4087 63.5503 77.4087Z" fill="white"/>
        <path d="M94.8126 84.7665C94.8287 84.7439 94.8443 84.7218 94.8605 84.6993C96.202 82.7993 96.9934 80.4845 96.9934 77.9874V60.7664C96.9934 54.9767 92.2833 50.2666 86.4935 50.2666H74.9472C69.1575 50.2666 64.4468 54.9767 64.4468 60.7664V75.6579H54.4658C50.7018 75.6579 47.4579 78.5449 47.2728 82.3044C47.0749 86.323 50.287 89.6557 54.2633 89.6557H85.3251C85.5622 89.6557 85.797 89.6465 86.0304 89.6327C86.1008 89.6286 86.1708 89.6221 86.2408 89.6166C86.4093 89.6032 86.5764 89.5871 86.743 89.5669C86.8153 89.5581 86.8871 89.5494 86.959 89.5392C87.1496 89.5125 87.3388 89.4808 87.5266 89.4449C87.5639 89.4375 87.6017 89.4324 87.6389 89.4246C87.8645 89.379 88.0878 89.3261 88.3083 89.2681C88.3594 89.2543 88.4101 89.2386 88.4612 89.2248C88.6329 89.1769 88.8028 89.1254 88.9713 89.0697C89.033 89.0494 89.0942 89.0287 89.1554 89.0075C89.3285 88.9472 89.4993 88.8827 89.6683 88.8146C89.7093 88.798 89.7507 88.7833 89.7912 88.7663C90.0048 88.6774 90.2161 88.5826 90.4233 88.4818C90.438 88.4744 90.4523 88.4666 90.4671 88.4597C90.6558 88.3667 90.8413 88.2677 91.0246 88.165C91.0683 88.1406 91.1116 88.1148 91.1553 88.09C91.3192 87.9951 91.4808 87.8961 91.6396 87.7935C91.6728 87.7718 91.7064 87.7511 91.7395 87.7295C92.1263 87.474 92.4969 87.1959 92.85 86.8976C92.8725 86.8787 92.8942 86.8589 92.9167 86.84C93.0728 86.7061 93.2247 86.5684 93.3734 86.4266C93.3965 86.405 93.4195 86.3829 93.442 86.3612C93.7804 86.033 94.0995 85.6854 94.3969 85.3185C94.3996 85.3153 94.4019 85.312 94.4042 85.3088C94.5442 85.1311 94.6805 84.9506 94.8126 84.7665ZM49.0375 83.1625C48.7438 80.0421 51.2013 77.4078 54.2623 77.4078H65.1038C65.1738 77.4257 65.2456 77.4382 65.3216 77.4382C65.3971 77.4382 65.4694 77.4257 65.5393 77.4078H77.3798C77.8632 77.4078 78.255 77.016 78.255 76.5326C78.255 76.0492 77.8632 75.6574 77.3798 75.6574H66.1972V60.766C66.1972 55.9417 70.1224 52.0165 74.9472 52.0165H86.4935C91.3178 52.0165 95.243 55.9412 95.243 60.766V77.9869C95.243 81.5761 93.3269 84.7255 90.4638 86.4667C88.9644 87.3787 87.2048 87.9044 85.3251 87.9044H54.417C51.6847 87.9049 49.2939 85.882 49.0375 83.1625Z" fill="white"/>
    </g>
    <defs>
        <clipPath id="clip0_1622_7564">
            <rect width="112.596" height="100" fill="white"/>
        </clipPath>
    </defs>
</svg>
